<?xml version="1.0" encoding="utf-8"?>
<!-- Generator: Adobe Illustrator 19.2.0, SVG Export Plug-In . SVG Version: 6.00 Build 0)  -->
<!DOCTYPE svg PUBLIC "-//W3C//DTD SVG 1.1//EN" "http://www.w3.org/Graphics/SVG/1.1/DTD/svg11.dtd">
<svg version="1.1" id="Layer_1" xmlns="http://www.w3.org/2000/svg" xmlns:xlink="http://www.w3.org/1999/xlink" x="0px" y="0px"
	 viewBox="0 0 316.68 263.697" enable-background="new 0 0 316.68 263.697" xml:space="preserve">
<g>
	<path fill="#F44336" d="M309.332,0H7.348C3.288,0,0,3.29,0,7.348v249.001c0,4.06,3.288,7.348,7.348,7.348h301.984
		c4.06,0,7.348-3.288,7.348-7.348V7.348C316.68,3.29,313.392,0,309.332,0z M301.984,249.001H14.696V65.712h287.288V249.001z
		 M301.984,51.016H14.696V14.696h287.288V51.016z"/>
	<circle fill="#F44336" cx="31.154" cy="31.344" r="7.921"/>
	<circle fill="#F44336" cx="51.24" cy="31.344" r="7.921"/>
	<circle fill="#F44336" cx="71.223" cy="31.344" r="7.921"/>
	<path fill="#F44336" d="M53.553,225.138c9.585,1.476,18.552-5.098,20.027-14.683c0.591-3.837-0.125-7.564-1.791-10.762
		l44.318-44.597c1.822,1.045,3.853,1.794,6.052,2.132c3.551,0.547,7.014-0.016,10.045-1.423l35.844,39.236
		c-0.112,0.467-0.218,0.937-0.293,1.42c-1.476,9.585,5.098,18.552,14.684,20.028c9.585,1.476,18.552-5.098,20.027-14.684
		c0.521-3.384,0.022-6.683-1.242-9.61l48.851-68.478c0.626,0.169,1.264,0.312,1.92,0.413c9.585,1.476,18.552-5.098,20.027-14.683
		c1.476-9.585-5.098-18.552-14.683-20.027c-9.585-1.476-18.552,5.098-20.027,14.683c-0.703,4.563,0.435,8.976,2.838,12.517
		l-47.54,66.641c-1.495-0.706-3.11-1.219-4.827-1.483c-4.621-0.711-9.089,0.462-12.652,2.927l-34.326-37.574
		c0.649-1.429,1.13-2.96,1.381-4.587c1.476-9.585-5.098-18.552-14.683-20.027c-9.585-1.476-18.552,5.098-20.028,14.683
		c-0.455,2.953-0.14,5.845,0.786,8.479l-45.523,45.81c-1.215-0.485-2.495-0.854-3.843-1.062
		c-9.585-1.476-18.552,5.098-20.028,14.683C37.393,214.696,43.967,223.663,53.553,225.138z"/>
</g>
</svg>
